<svg width="48" height="52" viewBox="0 0 48 52" fill="none" xmlns="http://www.w3.org/2000/svg">
<g filter="url(#filter0_d_21_351)">
<path d="M22 34H26V26H34V22H26V14H22V22H14V26H22V34ZM24 44C21.2333 44 18.6333 43.4833 16.2 42.45C13.7667 41.3833 11.65 39.95 9.85 38.15C8.05 36.35 6.61667 34.2333 5.55 31.8C4.51667 29.3667 4 26.7667 4 24C4 21.2333 4.51667 18.6333 5.55 16.2C6.61667 13.7667 8.05 11.65 9.85 9.85C11.65 8.05 13.7667 6.63333 16.2 5.6C18.6333 4.53333 21.2333 4 24 4C26.7667 4 29.3667 4.53333 31.8 5.6C34.2333 6.63333 36.35 8.05 38.15 9.85C39.95 11.65 41.3667 13.7667 42.4 16.2C43.4667 18.6333 44 21.2333 44 24C44 26.7667 43.4667 29.3667 42.4 31.8C41.3667 34.2333 39.95 36.35 38.15 38.15C36.35 39.95 34.2333 41.3833 31.8 42.45C29.3667 43.4833 26.7667 44 24 44ZM24 40C28.4667 40 32.25 38.45 35.35 35.35C38.45 32.25 40 28.4667 40 24C40 19.5333 38.45 15.75 35.35 12.65C32.25 9.55 28.4667 8 24 8C19.5333 8 15.75 9.55 12.65 12.65C9.55 15.75 8 19.5333 8 24C8 28.4667 9.55 32.25 12.65 35.35C15.75 38.45 19.5333 40 24 40Z" fill="#1D1B20"/>
</g>
<defs>
<filter id="filter0_d_21_351" x="-4" y="0" width="56" height="56" filterUnits="userSpaceOnUse" color-interpolation-filters="sRGB">
<feFlood flood-opacity="0" result="BackgroundImageFix"/>
<feColorMatrix in="SourceAlpha" type="matrix" values="0 0 0 0 0 0 0 0 0 0 0 0 0 0 0 0 0 0 127 0" result="hardAlpha"/>
<feOffset dy="4"/>
<feGaussianBlur stdDeviation="2"/>
<feComposite in2="hardAlpha" operator="out"/>
<feColorMatrix type="matrix" values="0 0 0 0 0 0 0 0 0 0 0 0 0 0 0 0 0 0 0.25 0"/>
<feBlend mode="normal" in2="BackgroundImageFix" result="effect1_dropShadow_21_351"/>
<feBlend mode="normal" in="SourceGraphic" in2="effect1_dropShadow_21_351" result="shape"/>
</filter>
</defs>
</svg>
