<svg width="198" height="211" viewBox="0 0 198 211" fill="none" xmlns="http://www.w3.org/2000/svg">
<g filter="url(#filter0_d_63_1080)">
<mask id="path-1-outside-1_63_1080" maskUnits="userSpaceOnUse" x="43" y="168" width="112" height="24" fill="black">
<rect fill="white" x="43" y="168" width="112" height="24"/>
<path d="M51.1621 183.984L55.1133 170.094H57.0273L55.9199 175.494L51.668 190H49.7676L51.1621 183.984ZM47.0742 170.094L50.2188 183.711L51.1621 190H49.2754L44.4492 170.094H47.0742ZM62.1406 183.697L65.2168 170.094H67.8555L63.043 190H61.1562L62.1406 183.697ZM57.3145 170.094L61.1562 183.984L62.5508 190H60.6504L56.5488 175.494L55.4277 170.094H57.3145ZM86.1074 179.418V180.676C86.1074 182.171 85.9206 183.51 85.5469 184.695C85.1732 185.88 84.6354 186.887 83.9336 187.717C83.2318 188.546 82.3887 189.18 81.4043 189.617C80.429 190.055 79.3353 190.273 78.123 190.273C76.9473 190.273 75.8672 190.055 74.8828 189.617C73.9076 189.18 73.0599 188.546 72.3398 187.717C71.6289 186.887 71.0775 185.88 70.6855 184.695C70.2936 183.51 70.0977 182.171 70.0977 180.676V179.418C70.0977 177.923 70.2891 176.588 70.6719 175.412C71.0638 174.227 71.6152 173.22 72.3262 172.391C73.0371 171.552 73.8802 170.914 74.8555 170.477C75.8398 170.039 76.9199 169.82 78.0957 169.82C79.3079 169.82 80.4017 170.039 81.377 170.477C82.3613 170.914 83.2044 171.552 83.9062 172.391C84.6172 173.22 85.1595 174.227 85.5332 175.412C85.916 176.588 86.1074 177.923 86.1074 179.418ZM83.4961 180.676V179.391C83.4961 178.206 83.373 177.158 83.127 176.246C82.89 175.335 82.5391 174.569 82.0742 173.949C81.6094 173.329 81.0397 172.86 80.3652 172.541C79.6999 172.222 78.9434 172.062 78.0957 172.062C77.2754 172.062 76.5326 172.222 75.8672 172.541C75.2109 172.86 74.6458 173.329 74.1719 173.949C73.707 174.569 73.347 175.335 73.0918 176.246C72.8366 177.158 72.709 178.206 72.709 179.391V180.676C72.709 181.87 72.8366 182.927 73.0918 183.848C73.347 184.759 73.7116 185.529 74.1855 186.158C74.6686 186.778 75.2383 187.247 75.8945 187.566C76.5599 187.885 77.3027 188.045 78.123 188.045C78.9798 188.045 79.7409 187.885 80.4062 187.566C81.0716 187.247 81.6322 186.778 82.0879 186.158C82.5527 185.529 82.9036 184.759 83.1406 183.848C83.3776 182.927 83.4961 181.87 83.4961 180.676ZM90.0586 170.094H96.6484C98.1432 170.094 99.4056 170.322 100.436 170.777C101.475 171.233 102.263 171.908 102.801 172.801C103.348 173.685 103.621 174.774 103.621 176.068C103.621 176.98 103.434 177.814 103.061 178.57C102.696 179.318 102.167 179.956 101.475 180.484C100.791 181.004 99.9707 181.391 99.0137 181.646L98.2754 181.934H92.082L92.0547 179.787H96.7305C97.6784 179.787 98.4668 179.623 99.0957 179.295C99.7246 178.958 100.199 178.507 100.518 177.941C100.837 177.376 100.996 176.752 100.996 176.068C100.996 175.303 100.846 174.633 100.545 174.059C100.244 173.484 99.7702 173.042 99.123 172.732C98.485 172.413 97.6602 172.254 96.6484 172.254H92.6973V190H90.0586V170.094ZM101.693 190L96.8535 180.977L99.6016 180.963L104.51 189.836V190H101.693ZM112.699 190H108.543L108.57 187.854H112.699C114.121 187.854 115.306 187.557 116.254 186.965C117.202 186.363 117.913 185.525 118.387 184.449C118.87 183.365 119.111 182.098 119.111 180.648V179.432C119.111 178.292 118.975 177.281 118.701 176.396C118.428 175.503 118.027 174.751 117.498 174.141C116.969 173.521 116.322 173.051 115.557 172.732C114.8 172.413 113.93 172.254 112.945 172.254H108.461V170.094H112.945C114.249 170.094 115.438 170.312 116.514 170.75C117.589 171.178 118.514 171.803 119.289 172.623C120.073 173.434 120.674 174.419 121.094 175.576C121.513 176.725 121.723 178.019 121.723 179.459V180.648C121.723 182.089 121.513 183.387 121.094 184.545C120.674 185.693 120.068 186.673 119.275 187.484C118.492 188.296 117.544 188.92 116.432 189.357C115.329 189.786 114.085 190 112.699 190ZM109.951 170.094V190H107.312V170.094H109.951ZM137.76 187.854V190H127.807V187.854H137.76ZM128.326 170.094V190H125.688V170.094H128.326ZM153.428 187.854V190H142.887V187.854H153.428ZM143.42 170.094V190H140.781V170.094H143.42ZM152.033 178.652V180.799H142.887V178.652H152.033ZM153.291 170.094V172.254H142.887V170.094H153.291Z"/>
</mask>
<path d="M51.1621 183.984L55.1133 170.094H57.0273L55.9199 175.494L51.668 190H49.7676L51.1621 183.984ZM47.0742 170.094L50.2188 183.711L51.1621 190H49.2754L44.4492 170.094H47.0742ZM62.1406 183.697L65.2168 170.094H67.8555L63.043 190H61.1562L62.1406 183.697ZM57.3145 170.094L61.1562 183.984L62.5508 190H60.6504L56.5488 175.494L55.4277 170.094H57.3145ZM86.1074 179.418V180.676C86.1074 182.171 85.9206 183.51 85.5469 184.695C85.1732 185.88 84.6354 186.887 83.9336 187.717C83.2318 188.546 82.3887 189.18 81.4043 189.617C80.429 190.055 79.3353 190.273 78.123 190.273C76.9473 190.273 75.8672 190.055 74.8828 189.617C73.9076 189.18 73.0599 188.546 72.3398 187.717C71.6289 186.887 71.0775 185.88 70.6855 184.695C70.2936 183.51 70.0977 182.171 70.0977 180.676V179.418C70.0977 177.923 70.2891 176.588 70.6719 175.412C71.0638 174.227 71.6152 173.22 72.3262 172.391C73.0371 171.552 73.8802 170.914 74.8555 170.477C75.8398 170.039 76.9199 169.82 78.0957 169.82C79.3079 169.82 80.4017 170.039 81.377 170.477C82.3613 170.914 83.2044 171.552 83.9062 172.391C84.6172 173.22 85.1595 174.227 85.5332 175.412C85.916 176.588 86.1074 177.923 86.1074 179.418ZM83.4961 180.676V179.391C83.4961 178.206 83.373 177.158 83.127 176.246C82.89 175.335 82.5391 174.569 82.0742 173.949C81.6094 173.329 81.0397 172.86 80.3652 172.541C79.6999 172.222 78.9434 172.062 78.0957 172.062C77.2754 172.062 76.5326 172.222 75.8672 172.541C75.2109 172.86 74.6458 173.329 74.1719 173.949C73.707 174.569 73.347 175.335 73.0918 176.246C72.8366 177.158 72.709 178.206 72.709 179.391V180.676C72.709 181.87 72.8366 182.927 73.0918 183.848C73.347 184.759 73.7116 185.529 74.1855 186.158C74.6686 186.778 75.2383 187.247 75.8945 187.566C76.5599 187.885 77.3027 188.045 78.123 188.045C78.9798 188.045 79.7409 187.885 80.4062 187.566C81.0716 187.247 81.6322 186.778 82.0879 186.158C82.5527 185.529 82.9036 184.759 83.1406 183.848C83.3776 182.927 83.4961 181.87 83.4961 180.676ZM90.0586 170.094H96.6484C98.1432 170.094 99.4056 170.322 100.436 170.777C101.475 171.233 102.263 171.908 102.801 172.801C103.348 173.685 103.621 174.774 103.621 176.068C103.621 176.98 103.434 177.814 103.061 178.57C102.696 179.318 102.167 179.956 101.475 180.484C100.791 181.004 99.9707 181.391 99.0137 181.646L98.2754 181.934H92.082L92.0547 179.787H96.7305C97.6784 179.787 98.4668 179.623 99.0957 179.295C99.7246 178.958 100.199 178.507 100.518 177.941C100.837 177.376 100.996 176.752 100.996 176.068C100.996 175.303 100.846 174.633 100.545 174.059C100.244 173.484 99.7702 173.042 99.123 172.732C98.485 172.413 97.6602 172.254 96.6484 172.254H92.6973V190H90.0586V170.094ZM101.693 190L96.8535 180.977L99.6016 180.963L104.51 189.836V190H101.693ZM112.699 190H108.543L108.57 187.854H112.699C114.121 187.854 115.306 187.557 116.254 186.965C117.202 186.363 117.913 185.525 118.387 184.449C118.87 183.365 119.111 182.098 119.111 180.648V179.432C119.111 178.292 118.975 177.281 118.701 176.396C118.428 175.503 118.027 174.751 117.498 174.141C116.969 173.521 116.322 173.051 115.557 172.732C114.8 172.413 113.93 172.254 112.945 172.254H108.461V170.094H112.945C114.249 170.094 115.438 170.312 116.514 170.75C117.589 171.178 118.514 171.803 119.289 172.623C120.073 173.434 120.674 174.419 121.094 175.576C121.513 176.725 121.723 178.019 121.723 179.459V180.648C121.723 182.089 121.513 183.387 121.094 184.545C120.674 185.693 120.068 186.673 119.275 187.484C118.492 188.296 117.544 188.92 116.432 189.357C115.329 189.786 114.085 190 112.699 190ZM109.951 170.094V190H107.312V170.094H109.951ZM137.76 187.854V190H127.807V187.854H137.76ZM128.326 170.094V190H125.688V170.094H128.326ZM153.428 187.854V190H142.887V187.854H153.428ZM143.42 170.094V190H140.781V170.094H143.42ZM152.033 178.652V180.799H142.887V178.652H152.033ZM153.291 170.094V172.254H142.887V170.094H153.291Z" fill="white"/>
<path d="M51.1621 183.984L55.1133 170.094H57.0273L55.9199 175.494L51.668 190H49.7676L51.1621 183.984ZM47.0742 170.094L50.2188 183.711L51.1621 190H49.2754L44.4492 170.094H47.0742ZM62.1406 183.697L65.2168 170.094H67.8555L63.043 190H61.1562L62.1406 183.697ZM57.3145 170.094L61.1562 183.984L62.5508 190H60.6504L56.5488 175.494L55.4277 170.094H57.3145ZM86.1074 179.418V180.676C86.1074 182.171 85.9206 183.51 85.5469 184.695C85.1732 185.88 84.6354 186.887 83.9336 187.717C83.2318 188.546 82.3887 189.18 81.4043 189.617C80.429 190.055 79.3353 190.273 78.123 190.273C76.9473 190.273 75.8672 190.055 74.8828 189.617C73.9076 189.18 73.0599 188.546 72.3398 187.717C71.6289 186.887 71.0775 185.88 70.6855 184.695C70.2936 183.51 70.0977 182.171 70.0977 180.676V179.418C70.0977 177.923 70.2891 176.588 70.6719 175.412C71.0638 174.227 71.6152 173.22 72.3262 172.391C73.0371 171.552 73.8802 170.914 74.8555 170.477C75.8398 170.039 76.9199 169.82 78.0957 169.82C79.3079 169.82 80.4017 170.039 81.377 170.477C82.3613 170.914 83.2044 171.552 83.9062 172.391C84.6172 173.22 85.1595 174.227 85.5332 175.412C85.916 176.588 86.1074 177.923 86.1074 179.418ZM83.4961 180.676V179.391C83.4961 178.206 83.373 177.158 83.127 176.246C82.89 175.335 82.5391 174.569 82.0742 173.949C81.6094 173.329 81.0397 172.86 80.3652 172.541C79.6999 172.222 78.9434 172.062 78.0957 172.062C77.2754 172.062 76.5326 172.222 75.8672 172.541C75.2109 172.86 74.6458 173.329 74.1719 173.949C73.707 174.569 73.347 175.335 73.0918 176.246C72.8366 177.158 72.709 178.206 72.709 179.391V180.676C72.709 181.87 72.8366 182.927 73.0918 183.848C73.347 184.759 73.7116 185.529 74.1855 186.158C74.6686 186.778 75.2383 187.247 75.8945 187.566C76.5599 187.885 77.3027 188.045 78.123 188.045C78.9798 188.045 79.7409 187.885 80.4062 187.566C81.0716 187.247 81.6322 186.778 82.0879 186.158C82.5527 185.529 82.9036 184.759 83.1406 183.848C83.3776 182.927 83.4961 181.87 83.4961 180.676ZM90.0586 170.094H96.6484C98.1432 170.094 99.4056 170.322 100.436 170.777C101.475 171.233 102.263 171.908 102.801 172.801C103.348 173.685 103.621 174.774 103.621 176.068C103.621 176.98 103.434 177.814 103.061 178.57C102.696 179.318 102.167 179.956 101.475 180.484C100.791 181.004 99.9707 181.391 99.0137 181.646L98.2754 181.934H92.082L92.0547 179.787H96.7305C97.6784 179.787 98.4668 179.623 99.0957 179.295C99.7246 178.958 100.199 178.507 100.518 177.941C100.837 177.376 100.996 176.752 100.996 176.068C100.996 175.303 100.846 174.633 100.545 174.059C100.244 173.484 99.7702 173.042 99.123 172.732C98.485 172.413 97.6602 172.254 96.6484 172.254H92.6973V190H90.0586V170.094ZM101.693 190L96.8535 180.977L99.6016 180.963L104.51 189.836V190H101.693ZM112.699 190H108.543L108.57 187.854H112.699C114.121 187.854 115.306 187.557 116.254 186.965C117.202 186.363 117.913 185.525 118.387 184.449C118.87 183.365 119.111 182.098 119.111 180.648V179.432C119.111 178.292 118.975 177.281 118.701 176.396C118.428 175.503 118.027 174.751 117.498 174.141C116.969 173.521 116.322 173.051 115.557 172.732C114.8 172.413 113.93 172.254 112.945 172.254H108.461V170.094H112.945C114.249 170.094 115.438 170.312 116.514 170.75C117.589 171.178 118.514 171.803 119.289 172.623C120.073 173.434 120.674 174.419 121.094 175.576C121.513 176.725 121.723 178.019 121.723 179.459V180.648C121.723 182.089 121.513 183.387 121.094 184.545C120.674 185.693 120.068 186.673 119.275 187.484C118.492 188.296 117.544 188.92 116.432 189.357C115.329 189.786 114.085 190 112.699 190ZM109.951 170.094V190H107.312V170.094H109.951ZM137.76 187.854V190H127.807V187.854H137.76ZM128.326 170.094V190H125.688V170.094H128.326ZM153.428 187.854V190H142.887V187.854H153.428ZM143.42 170.094V190H140.781V170.094H143.42ZM152.033 178.652V180.799H142.887V178.652H152.033ZM153.291 170.094V172.254H142.887V170.094H153.291Z" fill="black" fill-opacity="0.2"/>
<path d="M51.1621 183.984L50.2003 183.711L50.1935 183.735L50.1879 183.759L51.1621 183.984ZM55.1133 170.094V169.094H54.3581L54.1514 169.82L55.1133 170.094ZM57.0273 170.094L58.007 170.295L58.2532 169.094H57.0273V170.094ZM55.9199 175.494L56.8795 175.775L56.8912 175.736L56.8995 175.695L55.9199 175.494ZM51.668 190V191H52.4169L52.6276 190.281L51.668 190ZM49.7676 190L48.7934 189.774L48.5092 191H49.7676V190ZM47.0742 170.094L48.0486 169.869L47.8696 169.094H47.0742V170.094ZM50.2188 183.711L51.2077 183.563L51.2019 183.524L51.1931 183.486L50.2188 183.711ZM51.1621 190V191H52.3233L52.151 189.852L51.1621 190ZM49.2754 190L48.3035 190.236L48.4889 191H49.2754V190ZM44.4492 170.094V169.094H43.1778L43.4774 170.329L44.4492 170.094ZM62.1406 183.697L61.1653 183.477L61.1578 183.51L61.1526 183.543L62.1406 183.697ZM65.2168 170.094V169.094H64.4177L64.2414 169.873L65.2168 170.094ZM67.8555 170.094L68.8275 170.329L69.126 169.094H67.8555V170.094ZM63.043 190V191H63.83L64.015 190.235L63.043 190ZM61.1562 190L60.1682 189.846L59.9879 191H61.1562V190ZM57.3145 170.094L58.2783 169.827L58.0754 169.094H57.3145V170.094ZM61.1562 183.984L62.1304 183.759L62.1257 183.738L62.1201 183.718L61.1562 183.984ZM62.5508 190V191H63.8091L63.5249 189.774L62.5508 190ZM60.6504 190L59.6881 190.272L59.8939 191H60.6504V190ZM56.5488 175.494L55.5697 175.697L55.5769 175.732L55.5866 175.766L56.5488 175.494ZM55.4277 170.094V169.094H54.1988L54.4486 170.297L55.4277 170.094ZM52.124 184.258L56.0751 170.367L54.1514 169.82L50.2003 183.711L52.124 184.258ZM55.1133 171.094H57.0273V169.094H55.1133V171.094ZM56.0477 169.893L54.9403 175.293L56.8995 175.695L58.007 170.295L56.0477 169.893ZM54.9603 175.213L50.7083 189.719L52.6276 190.281L56.8795 175.775L54.9603 175.213ZM51.668 189H49.7676V191H51.668V189ZM50.7417 190.226L52.1363 184.21L50.1879 183.759L48.7934 189.774L50.7417 190.226ZM46.0999 170.319L49.2444 183.936L51.1931 183.486L48.0486 169.869L46.0999 170.319ZM49.2298 183.859L50.1732 190.148L52.151 189.852L51.2077 183.563L49.2298 183.859ZM51.1621 189H49.2754V191H51.1621V189ZM50.2472 189.764L45.4211 169.858L43.4774 170.329L48.3035 190.236L50.2472 189.764ZM44.4492 171.094H47.0742V169.094H44.4492V171.094ZM63.116 183.918L66.1922 170.314L64.2414 169.873L61.1653 183.477L63.116 183.918ZM65.2168 171.094H67.8555V169.094H65.2168V171.094ZM66.8835 169.859L62.071 189.765L64.015 190.235L68.8275 170.329L66.8835 169.859ZM63.043 189H61.1562V191H63.043V189ZM62.1443 190.154L63.1286 183.852L61.1526 183.543L60.1682 189.846L62.1443 190.154ZM56.3506 170.36L60.1924 184.251L62.1201 183.718L58.2783 169.827L56.3506 170.36ZM60.1821 184.21L61.5766 190.226L63.5249 189.774L62.1304 183.759L60.1821 184.21ZM62.5508 189H60.6504V191H62.5508V189ZM61.6127 189.728L57.5111 175.222L55.5866 175.766L59.6881 190.272L61.6127 189.728ZM57.528 175.291L56.4069 169.89L54.4486 170.297L55.5697 175.697L57.528 175.291ZM55.4277 171.094H57.3145V169.094H55.4277V171.094ZM83.9336 187.717L84.697 188.363L83.9336 187.717ZM81.4043 189.617L80.9982 188.703L80.995 188.705L81.4043 189.617ZM74.8828 189.617L74.4735 190.53L74.4767 190.531L74.8828 189.617ZM72.3398 187.717L71.5806 188.368L71.5847 188.372L72.3398 187.717ZM70.6719 175.412L69.7225 175.098L69.721 175.103L70.6719 175.412ZM72.3262 172.391L73.0854 173.041L73.0889 173.037L72.3262 172.391ZM74.8555 170.477L74.4493 169.563L74.4462 169.564L74.8555 170.477ZM81.377 170.477L80.9677 171.389L80.9708 171.39L81.377 170.477ZM83.9062 172.391L83.1393 173.032L83.147 173.041L83.9062 172.391ZM85.5332 175.412L84.5795 175.713L84.5823 175.722L85.5332 175.412ZM83.127 176.246L82.1591 176.498L82.1615 176.507L83.127 176.246ZM82.0742 173.949L82.8742 173.349L82.0742 173.949ZM80.3652 172.541L79.9329 173.443L79.9377 173.445L80.3652 172.541ZM75.8672 172.541L75.4349 171.639L75.43 171.642L75.8672 172.541ZM74.1719 173.949L73.3775 173.342L73.3719 173.349L74.1719 173.949ZM73.0918 183.848L72.1281 184.115L72.1288 184.117L73.0918 183.848ZM74.1855 186.158L73.3869 186.76L73.3918 186.767L73.3968 186.773L74.1855 186.158ZM75.8945 187.566L75.4573 188.466L75.4622 188.468L75.8945 187.566ZM82.0879 186.158L81.2837 185.564L81.2822 185.566L82.0879 186.158ZM83.1406 183.848L84.1085 184.099L84.1091 184.097L83.1406 183.848ZM85.1074 179.418V180.676H87.1074V179.418H85.1074ZM85.1074 180.676C85.1074 182.089 84.9307 183.324 84.5932 184.395L86.5006 184.996C86.9105 183.696 87.1074 182.253 87.1074 180.676H85.1074ZM84.5932 184.395C84.2537 185.471 83.7749 186.356 83.1702 187.071L84.697 188.363C85.4959 187.419 86.0927 186.289 86.5006 184.996L84.5932 184.395ZM83.1702 187.071C82.5649 187.786 81.8436 188.328 80.9982 188.703L81.8104 190.531C82.9338 190.032 83.8987 189.306 84.697 188.363L83.1702 187.071ZM80.995 188.705C80.1647 189.077 79.2131 189.273 78.123 189.273V191.273C79.4575 191.273 80.6934 191.032 81.8136 190.53L80.995 188.705ZM78.123 189.273C77.0743 189.273 76.1342 189.079 75.2889 188.703L74.4767 190.531C75.6002 191.03 76.8203 191.273 78.123 191.273V189.273ZM75.2921 188.705C74.4531 188.328 73.7225 187.784 73.095 187.061L71.5847 188.372C72.3973 189.308 73.362 190.031 74.4735 190.53L75.2921 188.705ZM73.0991 187.066C72.4841 186.348 71.9918 185.46 71.635 184.381L69.7361 185.009C70.1632 186.3 70.7738 187.426 71.5806 188.368L73.0991 187.066ZM71.635 184.381C71.2824 183.315 71.0977 182.084 71.0977 180.676H69.0977C69.0977 182.257 69.3048 183.705 69.7361 185.009L71.635 184.381ZM71.0977 180.676V179.418H69.0977V180.676H71.0977ZM71.0977 179.418C71.0977 178.007 71.2785 176.779 71.6227 175.722L69.721 175.103C69.2997 176.397 69.0977 177.839 69.0977 179.418H71.0977ZM71.6213 175.726C71.9781 174.647 72.4704 173.759 73.0854 173.041L71.5669 171.74C70.7601 172.681 70.1495 173.807 69.7225 175.098L71.6213 175.726ZM73.0889 173.037C73.7062 172.309 74.4296 171.764 75.2648 171.389L74.4462 169.564C73.3308 170.065 72.368 170.795 71.5634 171.744L73.0889 173.037ZM75.2616 171.39C76.1068 171.015 77.0469 170.82 78.0957 170.82V168.82C76.7929 168.82 75.5729 169.063 74.4493 169.563L75.2616 171.39ZM78.0957 170.82C79.1858 170.82 80.1373 171.016 80.9677 171.389L81.7863 169.564C80.6661 169.062 79.4301 168.82 78.0957 168.82V170.82ZM80.9708 171.39C81.8136 171.765 82.534 172.309 83.1394 173.032L84.6731 171.749C83.8749 170.795 82.909 170.063 81.7831 169.563L80.9708 171.39ZM83.147 173.041C83.7589 173.755 84.2408 174.639 84.5795 175.713L86.4869 175.111C86.0782 173.815 85.4754 172.685 84.6655 171.74L83.147 173.041ZM84.5823 175.722C84.9266 176.779 85.1074 178.007 85.1074 179.418H87.1074C87.1074 177.839 86.9054 176.397 86.4841 175.103L84.5823 175.722ZM84.4961 180.676V179.391H82.4961V180.676H84.4961ZM84.4961 179.391C84.4961 178.139 84.3664 177 84.0924 175.985L82.1615 176.507C82.3797 177.315 82.4961 178.272 82.4961 179.391H84.4961ZM84.0948 175.994C83.8319 174.984 83.432 174.093 82.8742 173.349L81.2742 174.549C81.6461 175.045 81.948 175.686 82.1591 176.498L84.0948 175.994ZM82.8742 173.349C82.3157 172.604 81.62 172.028 80.7928 171.637L79.9377 173.445C80.4594 173.692 80.9031 174.054 81.2742 174.549L82.8742 173.349ZM80.7976 171.639C79.9785 171.247 79.0707 171.062 78.0957 171.062V173.062C78.816 173.062 79.4212 173.197 79.9329 173.443L80.7976 171.639ZM78.0957 171.062C77.1426 171.062 76.2496 171.249 75.4349 171.639L76.2995 173.443C76.8155 173.195 77.4082 173.062 78.0957 173.062V171.062ZM75.43 171.642C74.6239 172.033 73.9394 172.607 73.3775 173.342L74.9662 174.557C75.3522 174.052 75.7979 173.687 76.3044 173.44L75.43 171.642ZM73.3719 173.349C72.8183 174.087 72.4103 174.971 72.1288 175.976L74.0548 176.516C74.2838 175.698 74.5958 175.051 74.9719 174.549L73.3719 173.349ZM72.1288 175.976C71.8438 176.994 71.709 178.136 71.709 179.391H73.709C73.709 178.275 73.8294 177.321 74.0548 176.516L72.1288 175.976ZM71.709 179.391V180.676H73.709V179.391H71.709ZM71.709 180.676C71.709 181.939 71.8437 183.089 72.1281 184.115L74.0555 183.581C73.8295 182.765 73.709 181.801 73.709 180.676H71.709ZM72.1288 184.117C72.411 185.125 72.8245 186.014 73.3869 186.76L74.9842 185.556C74.5987 185.045 74.283 184.393 74.0548 183.578L72.1288 184.117ZM73.3968 186.773C73.9664 187.504 74.6533 188.075 75.4573 188.466L76.3317 186.667C75.8232 186.42 75.3708 186.052 74.9743 185.543L73.3968 186.773ZM75.4622 188.468C76.2769 188.859 77.17 189.045 78.123 189.045V187.045C77.4355 187.045 76.8428 186.912 76.3269 186.665L75.4622 188.468ZM78.123 189.045C79.1054 189.045 80.0182 188.861 80.8386 188.468L79.9739 186.665C79.4636 186.909 78.8542 187.045 78.123 187.045V189.045ZM80.8386 188.468C81.6583 188.075 82.3449 187.497 82.8935 186.751L81.2822 185.566C80.9194 186.059 80.485 186.42 79.9739 186.665L80.8386 188.468ZM82.8921 186.753C83.4466 186.002 83.8457 185.11 84.1084 184.099L82.1728 183.596C81.9616 184.408 81.6588 185.056 81.2837 185.564L82.8921 186.753ZM84.1091 184.097C84.3715 183.077 84.4961 181.933 84.4961 180.676H82.4961C82.4961 181.806 82.3837 182.777 82.1722 183.598L84.1091 184.097ZM90.0586 170.094V169.094H89.0586V170.094H90.0586ZM100.436 170.777L100.031 171.692L100.034 171.693L100.436 170.777ZM102.801 172.801L101.944 173.317L101.95 173.327L102.801 172.801ZM103.061 178.57L102.164 178.127L102.162 178.132L103.061 178.57ZM101.475 180.484L102.08 181.281L102.081 181.279L101.475 180.484ZM99.0137 181.646L98.756 180.68L98.7027 180.694L98.6512 180.714L99.0137 181.646ZM98.2754 181.934V182.934H98.463L98.6378 182.866L98.2754 181.934ZM92.082 181.934L91.0821 181.946L91.0947 182.934H92.082V181.934ZM92.0547 179.787V178.787H91.0419L91.0548 179.8L92.0547 179.787ZM99.0957 179.295L99.5583 180.182L99.5683 180.176L99.0957 179.295ZM99.123 172.732L98.6758 173.627L98.6835 173.631L98.6911 173.634L99.123 172.732ZM92.6973 172.254V171.254H91.6973V172.254H92.6973ZM92.6973 190V191H93.6973V190H92.6973ZM90.0586 190H89.0586V191H90.0586V190ZM101.693 190L100.812 190.473L101.095 191H101.693V190ZM96.8535 180.977L96.8485 179.977L95.1868 179.985L95.9723 181.449L96.8535 180.977ZM99.6016 180.963L100.477 180.479L100.19 179.96L99.5966 179.963L99.6016 180.963ZM104.51 189.836H105.51V189.578L105.385 189.352L104.51 189.836ZM104.51 190V191H105.51V190H104.51ZM90.0586 171.094H96.6484V169.094H90.0586V171.094ZM96.6484 171.094C98.0472 171.094 99.1628 171.308 100.031 171.692L100.84 169.863C99.6484 169.336 98.2393 169.094 96.6484 169.094V171.094ZM100.034 171.693C100.901 172.073 101.522 172.616 101.944 173.317L103.658 172.285C103.004 171.199 102.048 170.393 100.837 169.862L100.034 171.693ZM101.95 173.327C102.378 174.018 102.621 174.915 102.621 176.068H104.621C104.621 174.634 104.317 173.351 103.651 172.275L101.95 173.327ZM102.621 176.068C102.621 176.839 102.464 177.519 102.164 178.127L103.957 179.013C104.404 178.108 104.621 177.121 104.621 176.068H102.621ZM102.162 178.132C101.869 178.733 101.443 179.251 100.868 179.689L102.081 181.279C102.892 180.661 103.523 179.903 103.959 179.009L102.162 178.132ZM100.87 179.688C100.304 180.118 99.6064 180.453 98.756 180.68L99.2713 182.613C100.335 182.329 101.278 181.89 102.08 181.281L100.87 179.688ZM98.6512 180.714L97.9129 181.002L98.6378 182.866L99.3761 182.578L98.6512 180.714ZM98.2754 180.934H92.082V182.934H98.2754V180.934ZM93.0819 181.921L93.0546 179.774L91.0548 179.8L91.0821 181.946L93.0819 181.921ZM92.0547 180.787H96.7305V178.787H92.0547V180.787ZM96.7305 180.787C97.7876 180.787 98.7467 180.605 99.5583 180.182L98.6331 178.408C98.1869 178.641 97.5692 178.787 96.7305 178.787V180.787ZM99.5683 180.176C100.347 179.759 100.967 179.179 101.388 178.433L99.6468 177.45C99.4301 177.834 99.1023 178.157 98.6231 178.414L99.5683 180.176ZM101.388 178.433C101.797 177.71 101.996 176.915 101.996 176.068H99.9961C99.9961 176.589 99.8765 177.043 99.6468 177.45L101.388 178.433ZM101.996 176.068C101.996 175.17 101.819 174.336 101.431 173.595L99.6591 174.523C99.8724 174.93 99.9961 175.435 99.9961 176.068H101.996ZM101.431 173.595C101.019 172.809 100.375 172.223 99.555 171.831L98.6911 173.634C99.1656 173.862 99.4691 174.16 99.6591 174.523L101.431 173.595ZM99.5703 171.838C98.7477 171.427 97.7547 171.254 96.6484 171.254V173.254C97.5656 173.254 98.2223 173.4 98.6758 173.627L99.5703 171.838ZM96.6484 171.254H92.6973V173.254H96.6484V171.254ZM91.6973 172.254V190H93.6973V172.254H91.6973ZM92.6973 189H90.0586V191H92.6973V189ZM91.0586 190V170.094H89.0586V190H91.0586ZM102.575 189.527L97.7348 180.504L95.9723 181.449L100.812 190.473L102.575 189.527ZM96.8585 181.977L99.6065 181.963L99.5966 179.963L96.8485 179.977L96.8585 181.977ZM98.7265 181.447L103.635 190.32L105.385 189.352L100.477 180.479L98.7265 181.447ZM103.51 189.836V190H105.51V189.836H103.51ZM104.51 189H101.693V191H104.51V189ZM108.543 190L107.543 189.987L107.53 191H108.543V190ZM108.57 187.854V186.854H107.583L107.57 187.841L108.57 187.854ZM116.254 186.965L116.784 187.813L116.79 187.809L116.254 186.965ZM118.387 184.449L117.473 184.042L117.472 184.046L118.387 184.449ZM118.701 176.396L117.745 176.689L117.746 176.692L118.701 176.396ZM117.498 174.141L116.737 174.79L116.742 174.795L117.498 174.141ZM115.557 172.732L115.168 173.654L115.172 173.655L115.557 172.732ZM108.461 172.254H107.461V173.254H108.461V172.254ZM108.461 170.094V169.094H107.461V170.094H108.461ZM116.514 170.75L116.137 171.676L116.144 171.679L116.514 170.75ZM119.289 172.623L118.562 173.31L118.57 173.318L119.289 172.623ZM121.094 175.576L120.154 175.917L120.154 175.919L121.094 175.576ZM121.094 184.545L122.033 184.888L122.034 184.885L121.094 184.545ZM119.275 187.484L118.56 186.785L118.556 186.789L119.275 187.484ZM116.432 189.357L116.794 190.29L116.798 190.288L116.432 189.357ZM109.951 170.094H110.951V169.094H109.951V170.094ZM109.951 190V191H110.951V190H109.951ZM107.312 190H106.312V191H107.312V190ZM107.312 170.094V169.094H106.312V170.094H107.312ZM112.699 189H108.543V191H112.699V189ZM109.543 190.013L109.57 187.866L107.57 187.841L107.543 189.987L109.543 190.013ZM108.57 188.854H112.699V186.854H108.57V188.854ZM112.699 188.854C114.258 188.854 115.639 188.528 116.784 187.813L115.724 186.117C114.973 186.586 113.984 186.854 112.699 186.854V188.854ZM116.79 187.809C117.913 187.096 118.752 186.1 119.302 184.852L117.472 184.046C117.074 184.949 116.491 185.63 115.718 186.121L116.79 187.809ZM119.3 184.856C119.851 183.618 120.111 182.208 120.111 180.648H118.111C118.111 181.988 117.888 183.111 117.473 184.042L119.3 184.856ZM120.111 180.648V179.432H118.111V180.648H120.111ZM120.111 179.432C120.111 178.214 119.965 177.1 119.657 176.101L117.746 176.692C117.984 177.461 118.111 178.37 118.111 179.432H120.111ZM119.657 176.104C119.349 175.098 118.887 174.217 118.254 173.486L116.742 174.795C117.166 175.285 117.506 175.908 117.745 176.689L119.657 176.104ZM118.259 173.492C117.626 172.75 116.849 172.188 115.941 171.809L115.172 173.655C115.795 173.915 116.313 174.292 116.737 174.79L118.259 173.492ZM115.945 171.811C115.044 171.431 114.037 171.254 112.945 171.254V173.254C113.822 173.254 114.556 173.396 115.168 173.654L115.945 171.811ZM112.945 171.254H108.461V173.254H112.945V171.254ZM109.461 172.254V170.094H107.461V172.254H109.461ZM108.461 171.094H112.945V169.094H108.461V171.094ZM112.945 171.094C114.135 171.094 115.195 171.293 116.137 171.676L116.89 169.824C115.681 169.332 114.362 169.094 112.945 169.094V171.094ZM116.144 171.679C117.088 172.055 117.89 172.598 118.562 173.31L120.016 171.936C119.139 171.007 118.091 170.302 116.884 169.821L116.144 171.679ZM118.57 173.318C119.247 174.019 119.778 174.879 120.154 175.917L122.034 175.236C121.571 173.958 120.899 172.85 120.008 171.928L118.57 173.318ZM120.154 175.919C120.527 176.94 120.723 178.116 120.723 179.459H122.723C122.723 177.922 122.499 176.509 122.033 175.233L120.154 175.919ZM120.723 179.459V180.648H122.723V179.459H120.723ZM120.723 180.648C120.723 181.992 120.527 183.173 120.154 184.204L122.034 184.885C122.499 183.602 122.723 182.185 122.723 180.648H120.723ZM120.154 184.202C119.78 185.228 119.247 186.083 118.56 186.785L119.99 188.183C120.89 187.263 121.569 186.159 122.033 184.888L120.154 184.202ZM118.556 186.789C117.878 187.492 117.052 188.039 116.066 188.427L116.798 190.288C118.035 189.801 119.105 189.099 119.995 188.179L118.556 186.789ZM116.07 188.425C115.1 188.802 113.982 189 112.699 189V191C114.188 191 115.557 190.77 116.794 190.29L116.07 188.425ZM108.951 170.094V190H110.951V170.094H108.951ZM109.951 189H107.312V191H109.951V189ZM108.312 190V170.094H106.312V190H108.312ZM107.312 171.094H109.951V169.094H107.312V171.094ZM137.76 187.854H138.76V186.854H137.76V187.854ZM137.76 190V191H138.76V190H137.76ZM127.807 190H126.807V191H127.807V190ZM127.807 187.854V186.854H126.807V187.854H127.807ZM128.326 170.094H129.326V169.094H128.326V170.094ZM128.326 190V191H129.326V190H128.326ZM125.688 190H124.688V191H125.688V190ZM125.688 170.094V169.094H124.688V170.094H125.688ZM136.76 187.854V190H138.76V187.854H136.76ZM137.76 189H127.807V191H137.76V189ZM128.807 190V187.854H126.807V190H128.807ZM127.807 188.854H137.76V186.854H127.807V188.854ZM127.326 170.094V190H129.326V170.094H127.326ZM128.326 189H125.688V191H128.326V189ZM126.688 190V170.094H124.688V190H126.688ZM125.688 171.094H128.326V169.094H125.688V171.094ZM153.428 187.854H154.428V186.854H153.428V187.854ZM153.428 190V191H154.428V190H153.428ZM142.887 190H141.887V191H142.887V190ZM142.887 187.854V186.854H141.887V187.854H142.887ZM143.42 170.094H144.42V169.094H143.42V170.094ZM143.42 190V191H144.42V190H143.42ZM140.781 190H139.781V191H140.781V190ZM140.781 170.094V169.094H139.781V170.094H140.781ZM152.033 178.652H153.033V177.652H152.033V178.652ZM152.033 180.799V181.799H153.033V180.799H152.033ZM142.887 180.799H141.887V181.799H142.887V180.799ZM142.887 178.652V177.652H141.887V178.652H142.887ZM153.291 170.094H154.291V169.094H153.291V170.094ZM153.291 172.254V173.254H154.291V172.254H153.291ZM142.887 172.254H141.887V173.254H142.887V172.254ZM142.887 170.094V169.094H141.887V170.094H142.887ZM152.428 187.854V190H154.428V187.854H152.428ZM153.428 189H142.887V191H153.428V189ZM143.887 190V187.854H141.887V190H143.887ZM142.887 188.854H153.428V186.854H142.887V188.854ZM142.42 170.094V190H144.42V170.094H142.42ZM143.42 189H140.781V191H143.42V189ZM141.781 190V170.094H139.781V190H141.781ZM140.781 171.094H143.42V169.094H140.781V171.094ZM151.033 178.652V180.799H153.033V178.652H151.033ZM152.033 179.799H142.887V181.799H152.033V179.799ZM143.887 180.799V178.652H141.887V180.799H143.887ZM142.887 179.652H152.033V177.652H142.887V179.652ZM152.291 170.094V172.254H154.291V170.094H152.291ZM153.291 171.254H142.887V173.254H153.291V171.254ZM143.887 172.254V170.094H141.887V172.254H143.887ZM142.887 171.094H153.291V169.094H142.887V171.094Z" fill="black" mask="url(#path-1-outside-1_63_1080)"/>
</g>
<g filter="url(#filter1_d_63_1080)">
<rect x="24" y="2" width="45.9799" height="39.064" fill="#B9C610"/>
<rect x="23.5" y="1.5" width="46.9799" height="40.064" stroke="black"/>
</g>
<g filter="url(#filter2_d_63_1080)">
<rect x="128.02" y="92.936" width="45.9799" height="39.064" fill="#29A04D"/>
<rect x="127.52" y="92.436" width="46.9799" height="40.064" stroke="black"/>
</g>
<g filter="url(#filter3_d_63_1080)">
<rect x="128.02" y="47.468" width="45.9799" height="39.064" fill="#BFBDBD"/>
<rect x="127.02" y="46.468" width="47.9799" height="41.064" stroke="black" stroke-width="2"/>
</g>
<g filter="url(#filter4_d_63_1080)">
<rect x="76.0101" y="92.936" width="45.9799" height="39.064" fill="#BFBDBD"/>
<rect x="75.0101" y="91.936" width="47.9799" height="41.064" stroke="black" stroke-width="2"/>
</g>
<g filter="url(#filter5_d_63_1080)">
<rect x="24.7538" y="92.936" width="45.9799" height="39.064" fill="#BFBDBD"/>
<rect x="23.7538" y="91.936" width="47.9799" height="41.064" stroke="black" stroke-width="2"/>
</g>
<g filter="url(#filter6_d_63_1080)">
<rect x="24" y="47.468" width="45.9799" height="39.064" fill="#BFBDBD"/>
<rect x="23" y="46.468" width="47.9799" height="41.064" stroke="black" stroke-width="2"/>
</g>
<g filter="url(#filter7_d_63_1080)">
<rect x="128.02" y="2" width="45.9799" height="39.064" fill="#BFBDBD"/>
<rect x="127.02" y="1" width="47.9799" height="41.064" stroke="black" stroke-width="2"/>
</g>
<g filter="url(#filter8_d_63_1080)">
<rect x="76.0101" y="2" width="45.9799" height="39.064" fill="#BFBDBD"/>
<rect x="75.0101" y="1" width="47.9799" height="41.064" stroke="black" stroke-width="2"/>
</g>
<g filter="url(#filter9_d_63_1080)">
<rect x="76.0101" y="47.468" width="45.9799" height="39.064" fill="#060606"/>
</g>
<g filter="url(#filter10_d_63_1080)">
<path d="M91.0254 73.8448L96.6895 51.794H99.6583L99.3262 57.4776L93.2715 80.2315H90.1856L91.0254 73.8448ZM86.7872 51.794L91.377 73.669L91.7872 80.2315H88.5059L81.9239 51.794H86.7872ZM106.084 73.6104L110.615 51.794H115.498L108.916 80.2315H105.635L106.084 73.6104ZM100.811 51.794L106.416 73.9034L107.236 80.2315H104.15L98.1934 57.4776L97.8809 51.794H100.811Z" fill="white"/>
</g>
<defs>
<filter id="filter0_d_63_1080" x="39.1778" y="168.82" width="119.25" height="30.4531" filterUnits="userSpaceOnUse" color-interpolation-filters="sRGB">
<feFlood flood-opacity="0" result="BackgroundImageFix"/>
<feColorMatrix in="SourceAlpha" type="matrix" values="0 0 0 0 0 0 0 0 0 0 0 0 0 0 0 0 0 0 127 0" result="hardAlpha"/>
<feOffset dy="4"/>
<feGaussianBlur stdDeviation="2"/>
<feComposite in2="hardAlpha" operator="out"/>
<feColorMatrix type="matrix" values="0 0 0 0 0 0 0 0 0 0 0 0 0 0 0 0 0 0 0.25 0"/>
<feBlend mode="normal" in2="BackgroundImageFix" result="effect1_dropShadow_63_1080"/>
<feBlend mode="normal" in="SourceGraphic" in2="effect1_dropShadow_63_1080" result="shape"/>
</filter>
<filter id="filter1_d_63_1080" x="19" y="1" width="55.9799" height="49.064" filterUnits="userSpaceOnUse" color-interpolation-filters="sRGB">
<feFlood flood-opacity="0" result="BackgroundImageFix"/>
<feColorMatrix in="SourceAlpha" type="matrix" values="0 0 0 0 0 0 0 0 0 0 0 0 0 0 0 0 0 0 127 0" result="hardAlpha"/>
<feOffset dy="4"/>
<feGaussianBlur stdDeviation="2"/>
<feComposite in2="hardAlpha" operator="out"/>
<feColorMatrix type="matrix" values="0 0 0 0 0 0 0 0 0 0 0 0 0 0 0 0 0 0 0.25 0"/>
<feBlend mode="normal" in2="BackgroundImageFix" result="effect1_dropShadow_63_1080"/>
<feBlend mode="normal" in="SourceGraphic" in2="effect1_dropShadow_63_1080" result="shape"/>
</filter>
<filter id="filter2_d_63_1080" x="123.02" y="91.936" width="55.9799" height="49.064" filterUnits="userSpaceOnUse" color-interpolation-filters="sRGB">
<feFlood flood-opacity="0" result="BackgroundImageFix"/>
<feColorMatrix in="SourceAlpha" type="matrix" values="0 0 0 0 0 0 0 0 0 0 0 0 0 0 0 0 0 0 127 0" result="hardAlpha"/>
<feOffset dy="4"/>
<feGaussianBlur stdDeviation="2"/>
<feComposite in2="hardAlpha" operator="out"/>
<feColorMatrix type="matrix" values="0 0 0 0 0 0 0 0 0 0 0 0 0 0 0 0 0 0 0.25 0"/>
<feBlend mode="normal" in2="BackgroundImageFix" result="effect1_dropShadow_63_1080"/>
<feBlend mode="normal" in="SourceGraphic" in2="effect1_dropShadow_63_1080" result="shape"/>
</filter>
<filter id="filter3_d_63_1080" x="122.02" y="45.468" width="57.9799" height="51.0641" filterUnits="userSpaceOnUse" color-interpolation-filters="sRGB">
<feFlood flood-opacity="0" result="BackgroundImageFix"/>
<feColorMatrix in="SourceAlpha" type="matrix" values="0 0 0 0 0 0 0 0 0 0 0 0 0 0 0 0 0 0 127 0" result="hardAlpha"/>
<feOffset dy="4"/>
<feGaussianBlur stdDeviation="2"/>
<feComposite in2="hardAlpha" operator="out"/>
<feColorMatrix type="matrix" values="0 0 0 0 0 0 0 0 0 0 0 0 0 0 0 0 0 0 0.25 0"/>
<feBlend mode="normal" in2="BackgroundImageFix" result="effect1_dropShadow_63_1080"/>
<feBlend mode="normal" in="SourceGraphic" in2="effect1_dropShadow_63_1080" result="shape"/>
</filter>
<filter id="filter4_d_63_1080" x="70.0101" y="90.936" width="57.9799" height="51.064" filterUnits="userSpaceOnUse" color-interpolation-filters="sRGB">
<feFlood flood-opacity="0" result="BackgroundImageFix"/>
<feColorMatrix in="SourceAlpha" type="matrix" values="0 0 0 0 0 0 0 0 0 0 0 0 0 0 0 0 0 0 127 0" result="hardAlpha"/>
<feOffset dy="4"/>
<feGaussianBlur stdDeviation="2"/>
<feComposite in2="hardAlpha" operator="out"/>
<feColorMatrix type="matrix" values="0 0 0 0 0 0 0 0 0 0 0 0 0 0 0 0 0 0 0.25 0"/>
<feBlend mode="normal" in2="BackgroundImageFix" result="effect1_dropShadow_63_1080"/>
<feBlend mode="normal" in="SourceGraphic" in2="effect1_dropShadow_63_1080" result="shape"/>
</filter>
<filter id="filter5_d_63_1080" x="18.7538" y="90.936" width="57.9799" height="51.064" filterUnits="userSpaceOnUse" color-interpolation-filters="sRGB">
<feFlood flood-opacity="0" result="BackgroundImageFix"/>
<feColorMatrix in="SourceAlpha" type="matrix" values="0 0 0 0 0 0 0 0 0 0 0 0 0 0 0 0 0 0 127 0" result="hardAlpha"/>
<feOffset dy="4"/>
<feGaussianBlur stdDeviation="2"/>
<feComposite in2="hardAlpha" operator="out"/>
<feColorMatrix type="matrix" values="0 0 0 0 0 0 0 0 0 0 0 0 0 0 0 0 0 0 0.25 0"/>
<feBlend mode="normal" in2="BackgroundImageFix" result="effect1_dropShadow_63_1080"/>
<feBlend mode="normal" in="SourceGraphic" in2="effect1_dropShadow_63_1080" result="shape"/>
</filter>
<filter id="filter6_d_63_1080" x="18" y="45.468" width="57.9799" height="51.0641" filterUnits="userSpaceOnUse" color-interpolation-filters="sRGB">
<feFlood flood-opacity="0" result="BackgroundImageFix"/>
<feColorMatrix in="SourceAlpha" type="matrix" values="0 0 0 0 0 0 0 0 0 0 0 0 0 0 0 0 0 0 127 0" result="hardAlpha"/>
<feOffset dy="4"/>
<feGaussianBlur stdDeviation="2"/>
<feComposite in2="hardAlpha" operator="out"/>
<feColorMatrix type="matrix" values="0 0 0 0 0 0 0 0 0 0 0 0 0 0 0 0 0 0 0.25 0"/>
<feBlend mode="normal" in2="BackgroundImageFix" result="effect1_dropShadow_63_1080"/>
<feBlend mode="normal" in="SourceGraphic" in2="effect1_dropShadow_63_1080" result="shape"/>
</filter>
<filter id="filter7_d_63_1080" x="122.02" y="0" width="57.9799" height="51.064" filterUnits="userSpaceOnUse" color-interpolation-filters="sRGB">
<feFlood flood-opacity="0" result="BackgroundImageFix"/>
<feColorMatrix in="SourceAlpha" type="matrix" values="0 0 0 0 0 0 0 0 0 0 0 0 0 0 0 0 0 0 127 0" result="hardAlpha"/>
<feOffset dy="4"/>
<feGaussianBlur stdDeviation="2"/>
<feComposite in2="hardAlpha" operator="out"/>
<feColorMatrix type="matrix" values="0 0 0 0 0 0 0 0 0 0 0 0 0 0 0 0 0 0 0.25 0"/>
<feBlend mode="normal" in2="BackgroundImageFix" result="effect1_dropShadow_63_1080"/>
<feBlend mode="normal" in="SourceGraphic" in2="effect1_dropShadow_63_1080" result="shape"/>
</filter>
<filter id="filter8_d_63_1080" x="70.0101" y="0" width="57.9799" height="51.064" filterUnits="userSpaceOnUse" color-interpolation-filters="sRGB">
<feFlood flood-opacity="0" result="BackgroundImageFix"/>
<feColorMatrix in="SourceAlpha" type="matrix" values="0 0 0 0 0 0 0 0 0 0 0 0 0 0 0 0 0 0 127 0" result="hardAlpha"/>
<feOffset dy="4"/>
<feGaussianBlur stdDeviation="2"/>
<feComposite in2="hardAlpha" operator="out"/>
<feColorMatrix type="matrix" values="0 0 0 0 0 0 0 0 0 0 0 0 0 0 0 0 0 0 0.25 0"/>
<feBlend mode="normal" in2="BackgroundImageFix" result="effect1_dropShadow_63_1080"/>
<feBlend mode="normal" in="SourceGraphic" in2="effect1_dropShadow_63_1080" result="shape"/>
</filter>
<filter id="filter9_d_63_1080" x="72.0101" y="47.468" width="53.9799" height="47.0641" filterUnits="userSpaceOnUse" color-interpolation-filters="sRGB">
<feFlood flood-opacity="0" result="BackgroundImageFix"/>
<feColorMatrix in="SourceAlpha" type="matrix" values="0 0 0 0 0 0 0 0 0 0 0 0 0 0 0 0 0 0 127 0" result="hardAlpha"/>
<feOffset dy="4"/>
<feGaussianBlur stdDeviation="2"/>
<feComposite in2="hardAlpha" operator="out"/>
<feColorMatrix type="matrix" values="0 0 0 0 0 0 0 0 0 0 0 0 0 0 0 0 0 0 0.25 0"/>
<feBlend mode="normal" in2="BackgroundImageFix" result="effect1_dropShadow_63_1080"/>
<feBlend mode="normal" in="SourceGraphic" in2="effect1_dropShadow_63_1080" result="shape"/>
</filter>
<filter id="filter10_d_63_1080" x="77.9239" y="51.794" width="41.5742" height="36.4375" filterUnits="userSpaceOnUse" color-interpolation-filters="sRGB">
<feFlood flood-opacity="0" result="BackgroundImageFix"/>
<feColorMatrix in="SourceAlpha" type="matrix" values="0 0 0 0 0 0 0 0 0 0 0 0 0 0 0 0 0 0 127 0" result="hardAlpha"/>
<feOffset dy="4"/>
<feGaussianBlur stdDeviation="2"/>
<feComposite in2="hardAlpha" operator="out"/>
<feColorMatrix type="matrix" values="0 0 0 0 0 0 0 0 0 0 0 0 0 0 0 0 0 0 0.25 0"/>
<feBlend mode="normal" in2="BackgroundImageFix" result="effect1_dropShadow_63_1080"/>
<feBlend mode="normal" in="SourceGraphic" in2="effect1_dropShadow_63_1080" result="shape"/>
</filter>
</defs>
</svg>
