<svg width="48" height="52" viewBox="0 0 48 52" fill="none" xmlns="http://www.w3.org/2000/svg">
<g filter="url(#filter0_d_21_389)">
<path d="M42 23C42.0069 25.6397 41.3901 28.2438 40.2 30.6C38.7889 33.4235 36.6195 35.7983 33.9349 37.4586C31.2503 39.1188 28.1565 39.9988 25 40C22.3603 40.0069 19.7562 39.3901 17.4 38.2L6 42L9.8 30.6C8.60986 28.2438 7.99312 25.6397 8 23C8.00122 19.8435 8.88122 16.7497 10.5414 14.0651C12.2017 11.3805 14.5765 9.21113 17.4 7.8C19.7562 6.60986 22.3603 5.99311 25 6H26C30.1687 6.22998 34.1061 7.98952 37.0583 10.9417C40.0105 13.8939 41.77 17.8313 42 22V23Z" stroke="#1E1E1E" stroke-width="4" stroke-linecap="round" stroke-linejoin="round"/>
</g>
<defs>
<filter id="filter0_d_21_389" x="-4" y="0" width="56" height="56" filterUnits="userSpaceOnUse" color-interpolation-filters="sRGB">
<feFlood flood-opacity="0" result="BackgroundImageFix"/>
<feColorMatrix in="SourceAlpha" type="matrix" values="0 0 0 0 0 0 0 0 0 0 0 0 0 0 0 0 0 0 127 0" result="hardAlpha"/>
<feOffset dy="4"/>
<feGaussianBlur stdDeviation="2"/>
<feComposite in2="hardAlpha" operator="out"/>
<feColorMatrix type="matrix" values="0 0 0 0 0 0 0 0 0 0 0 0 0 0 0 0 0 0 0.25 0"/>
<feBlend mode="normal" in2="BackgroundImageFix" result="effect1_dropShadow_21_389"/>
<feBlend mode="normal" in="SourceGraphic" in2="effect1_dropShadow_21_389" result="shape"/>
</filter>
</defs>
</svg>
