<svg width="56" height="56" viewBox="0 0 56 56" fill="none" xmlns="http://www.w3.org/2000/svg">
<g filter="url(#filter0_d_21_373)">
<path d="M44 42V38C44 35.8783 43.1571 33.8434 41.6569 32.3431C40.1566 30.8429 38.1217 30 36 30H20C17.8783 30 15.8434 30.8429 14.3431 32.3431C12.8429 33.8434 12 35.8783 12 38V42M36 14C36 18.4183 32.4183 22 28 22C23.5817 22 20 18.4183 20 14C20 9.58172 23.5817 6 28 6C32.4183 6 36 9.58172 36 14Z" stroke="#1E1E1E" stroke-width="4" stroke-linecap="round" stroke-linejoin="round"/>
</g>
<defs>
<filter id="filter0_d_21_373" x="0" y="0" width="56" height="56" filterUnits="userSpaceOnUse" color-interpolation-filters="sRGB">
<feFlood flood-opacity="0" result="BackgroundImageFix"/>
<feColorMatrix in="SourceAlpha" type="matrix" values="0 0 0 0 0 0 0 0 0 0 0 0 0 0 0 0 0 0 127 0" result="hardAlpha"/>
<feOffset dy="4"/>
<feGaussianBlur stdDeviation="2"/>
<feComposite in2="hardAlpha" operator="out"/>
<feColorMatrix type="matrix" values="0 0 0 0 0 0 0 0 0 0 0 0 0 0 0 0 0 0 0.25 0"/>
<feBlend mode="normal" in2="BackgroundImageFix" result="effect1_dropShadow_21_373"/>
<feBlend mode="normal" in="SourceGraphic" in2="effect1_dropShadow_21_373" result="shape"/>
</filter>
</defs>
</svg>
