<svg width="56" height="56" viewBox="0 0 56 56" fill="none" xmlns="http://www.w3.org/2000/svg">
<g filter="url(#filter0_d_21_392)">
<path d="M43.0625 14.9062L41.1094 15.2812L36.2188 35.5156H33.875L28.5312 17.7812L23.2969 35.5156H20.9844L15.7656 15.2812L13.9062 14.9062V13.5312H21.2344V14.9062L19.3281 15.0938C19.0885 15.125 18.9688 15.2812 18.9688 15.5625C18.9688 15.5938 18.9792 15.651 19 15.7344L22.8125 30.1719L27.8281 13.5312H30.2969L35.4531 30.6875L39 15.7344C39.0104 15.7135 39.0156 15.6771 39.0156 15.625C39.0156 15.3021 38.8594 15.125 38.5469 15.0938L36.5312 14.9062V13.5312H43.0625V14.9062Z" fill="black"/>
<circle cx="28" cy="24" r="22" stroke="black" stroke-width="4"/>
</g>
<defs>
<filter id="filter0_d_21_392" x="0" y="0" width="56" height="56" filterUnits="userSpaceOnUse" color-interpolation-filters="sRGB">
<feFlood flood-opacity="0" result="BackgroundImageFix"/>
<feColorMatrix in="SourceAlpha" type="matrix" values="0 0 0 0 0 0 0 0 0 0 0 0 0 0 0 0 0 0 127 0" result="hardAlpha"/>
<feOffset dy="4"/>
<feGaussianBlur stdDeviation="2"/>
<feComposite in2="hardAlpha" operator="out"/>
<feColorMatrix type="matrix" values="0 0 0 0 0 0 0 0 0 0 0 0 0 0 0 0 0 0 0.25 0"/>
<feBlend mode="normal" in2="BackgroundImageFix" result="effect1_dropShadow_21_392"/>
<feBlend mode="normal" in="SourceGraphic" in2="effect1_dropShadow_21_392" result="shape"/>
</filter>
</defs>
</svg>
